<svg
   width="37.275013mm"
   height="43.202805mm"
   viewBox="0 0 37.275013 43.202805">
  <defs>
    <linearGradient
       id="linearGradient1">
      <stop
         style="stop-color:#ed1d23;stop-opacity:1;"
         offset="0"
         id="stop1" />
      <stop
         style="stop-color:#fdb32b;stop-opacity:1;"
         offset="1"
         id="stop2" />
    </linearGradient>
    <linearGradient
       x1="62.403055"
       y1="126.18297"
       x2="99.678066"
       y2="126.18297"
       gradientUnits="userSpaceOnUse" />
  </defs>
  <g transform="translate(-62.403054,-104.58152)">
    <path
       style="font-size:51.1528px;font-family:'Lovely Home';-inkscape-font-specification:'Lovely Home';text-align:end;text-anchor:end;mix-blend-mode:color-burn;fill:url(#linearGradient2);stroke-width:0"
       d="m 68.720425,147.00424 q -0.664986,0.40923 -1.27882,0.56269 -0.613834,0.20461 -1.176515,0.20461 -0.613833,0.0512 -1.176514,-0.10231 -1.074209,-0.25576 -1.63689,-0.8696 -0.56268,-0.56268 -0.818444,-1.27882 -0.204612,-0.56268 -0.204612,-1.12536 -0.05115,-0.56268 0,-0.9719 0.05115,-0.51153 0.204612,-0.97191 0.153458,-0.56268 0.56268,-1.17651 0.409223,-0.66499 1.27882,-1.22767 1.227668,-0.81844 3.27378,-1.17651 0.102305,-1.48343 0,-2.96686 -0.05115,-0.81845 -0.102306,-1.58574 -0.153458,-1.43228 -0.306917,-2.25072 -0.102305,-0.51153 -0.153458,-0.92075 -0.306917,-2.30188 0.153458,-4.29684 0.511528,-1.99496 1.329973,-3.22263 0.562681,-0.92075 1.329973,-1.53458 0.613834,-0.56268 1.483431,-0.8696 0.920751,-0.35807 1.994959,-0.0512 0.613834,0.15346 1.278821,0.76729 0.664986,0.56268 0.664986,1.89266 0,0.40922 -0.102306,1.17651 -0.102305,0.71614 -0.613833,1.58574 -0.306917,0.56268 -0.716139,0.9719 -0.409223,0.40922 -0.818445,0.66499 -0.460376,0.25576 -0.767292,0.25576 -0.306917,-0.0512 -0.409223,-0.25576 -0.306917,-0.35807 -0.102305,-0.7673 0.102305,-0.20461 0.306916,-0.35807 0.511528,-0.40922 0.920751,-0.9719 0.409222,-0.56268 0.562681,-1.27882 0.255764,-0.8696 0.153458,-1.27882 -0.05115,-0.46037 -0.306917,-0.66499 -0.204611,-0.15345 -0.358069,-0.15345 -0.153459,-0.0512 -0.306917,-0.0512 -0.204611,0.0512 -0.35807,0.10231 -0.716139,0.46037 -1.074209,1.43228 -0.306916,0.9719 -0.409222,2.14842 -0.05115,1.17651 0.05115,2.35302 0.102305,1.17652 0.255764,2.04612 0.153458,0.81844 0.409222,2.55764 0.255764,1.68804 0.35807,3.683 2.353029,-1.02306 3.427238,-1.63689 1.074208,-0.66499 1.739195,-1.07421 0.306917,-0.20461 0.409222,-0.0512 0.102306,0.1023 0.102306,0.35807 0,0.25576 -0.05115,0.66498 -0.869598,0.61384 -1.790348,1.22767 -0.818445,0.56268 -1.790348,1.17651 -0.971903,0.56269 -1.994959,1.07421 -0.05115,1.17652 -0.204612,2.30188 -0.153458,1.12536 -0.460375,2.04611 -0.255764,0.71614 -0.613833,1.43228 -0.35807,0.61383 -0.869598,1.27882 -0.511528,0.66499 -1.27882,1.17651 z m -4.296835,-2.45533 q 0.05115,0.15346 0.153458,0.30692 0.102306,0.1023 0.255764,0.25576 0.102306,0.15346 0.306917,0.20461 0.409222,0.10231 0.716139,-0.20461 0.306917,-0.25576 0.562681,-0.56268 0.255764,-0.40922 0.460375,-1.07421 0.153459,-0.56268 0.255764,-1.07421 0.102306,-0.51153 0.204611,-0.92075 0.102306,-0.51153 0.153459,-0.92075 -1.125362,0.25577 -1.739196,0.76729 -0.664986,0.46038 -0.971903,0.92075 -0.409222,0.56268 -0.511528,1.17652 0,0.25576 0.05115,0.56268 0,0.30692 0.102306,0.56268 z m 14.373905,-3.32493 q 0,0.20461 0.05115,0.40922 0.102305,0.40922 0.102305,0.56268 0,0.40922 -0.102305,0.76729 -0.102306,0.30692 -0.562681,0.40923 -0.255764,0.1023 -0.460375,0.1023 -0.204612,0 -0.460376,0 -0.255764,-0.0512 -0.56268,-0.25576 -0.255764,-0.20461 -0.511528,-0.40923 -0.255764,-0.25576 -0.35807,-0.56268 -0.409222,-0.81844 -0.511528,-1.89265 -0.102306,-1.07421 0,-1.99496 0.102306,-1.07421 0.306917,-2.19957 0.358069,-1.58574 0.869597,-3.22263 0.511528,-1.63689 1.023056,-3.12032 0.562681,-1.53458 1.074209,-2.8134 0.562681,-1.27882 0.971903,-2.19957 1.585737,-3.73416 3.887613,-7.36601 -1.074208,0 -2.148417,-0.0512 -0.920751,0 -2.046112,0 -1.125362,-0.0511 -2.097265,-0.1023 -2.148418,-0.0512 -3.734155,0.51152 -1.585737,0.51153 -2.813404,1.27882 -1.227667,0.7673 -2.148417,1.53459 -0.971904,0.76729 -1.739196,1.17651 -1.023056,0.56268 -1.636889,0.51153 -0.613834,-0.1023 -1.023056,-0.40922 -0.460376,-0.35807 -0.664987,-1.02306 -0.358069,-1.27882 0.409223,-2.14842 0.767292,-0.86959 1.8415,-1.43227 1.27882,-0.61384 2.966863,-1.02306 0.869598,-0.15346 2.19957,-0.30692 1.176515,-0.1023 3.018016,-0.1023 1.790348,-0.0511 4.501446,0.0512 1.27882,0.0512 2.353029,0.0512 1.125362,-0.0512 1.994959,-0.1023 0.971904,-0.0511 1.790348,-0.10231 1.381126,-2.04611 2.813404,-3.88761 1.432279,-1.8415 2.813405,-3.27378 1.381125,-1.43228 2.608792,-2.40418 1.227668,-0.9719 2.250724,-1.32997 0.511528,-0.20462 1.074209,-0.25577 0.460375,-0.0511 0.971903,0.0512 0.562681,0.0512 1.023056,0.35807 0.562681,0.40923 0.869597,1.17652 0.255764,0.66499 0.255764,1.73919 0,1.07421 -0.613833,2.65995 -0.767292,1.63689 -2.097265,2.96686 -1.176514,1.17652 -3.069168,2.19957 -1.841501,0.97191 -4.706058,1.22767 -0.716139,1.22767 -1.381126,2.50649 -0.56268,1.07421 -1.27882,2.30187 -0.664986,1.22767 -1.227667,2.30188 -0.767292,1.43228 -1.483431,3.01801 -0.664986,1.38113 -1.381126,3.12033 -0.716139,1.73919 -1.432278,3.52954 0.460375,-0.66499 1.023056,-1.43228 0.562681,-0.76729 1.176514,-1.48343 0.971904,-1.17652 2.148418,-2.35303 1.176514,-1.17651 2.404182,-2.14842 1.227667,-0.9719 2.455334,-1.63689 1.227667,-0.71614 2.404182,-0.9719 0.511528,-0.10231 1.074209,0 0.613833,0.10231 1.176514,0.51153 0.716139,0.66498 0.716139,1.58573 0,0.92075 -0.255764,1.68805 -0.153458,0.46037 -0.358069,0.86959 -0.204612,0.40923 -0.460376,0.81845 -0.255764,0.35807 -0.613833,0.66499 -0.716139,0.66498 -1.534584,1.02305 -0.767292,0.35807 -1.688043,0.0512 -0.767292,-0.25576 -0.971903,-0.81844 -0.204611,-0.61383 -0.102305,-1.17651 0.102305,-0.66499 0.460375,-1.43228 -0.306917,0.1023 -0.920751,0.51152 -0.562681,0.35807 -1.381125,1.07421 -0.102306,0.25577 -0.306917,0.8696 -0.204611,0.61383 -0.460375,1.48343 -0.204612,0.81845 -0.409223,1.79035 -0.153458,0.9719 -0.153458,1.94381 0,0.76729 0.102305,1.58573 0.153459,0.81845 0.511528,1.53459 0.35807,0.66498 0.920751,1.12536 0.562681,0.40922 1.483431,0.40922 0.664987,0 1.381126,-0.25576 0.716139,-0.30692 1.381125,-0.76729 0.71614,-0.51153 1.329973,-1.12537 0.664987,-0.61383 1.227667,-1.27882 1.329973,-1.53458 2.557641,-3.52954 0.613833,-1.02306 1.074208,-1.79035 0.511528,-0.81844 0.869598,-1.22766 0.05115,-0.0512 0.153458,-0.0512 0.255764,0 0.511528,0.10231 0.204612,0.0512 0.153459,0.40922 0,0.25576 -0.818445,1.99496 -0.562681,1.22767 -1.27882,2.55764 -0.613834,1.12536 -1.483431,2.50649 -0.869598,1.32997 -1.892654,2.55764 -0.767292,0.9719 -1.688042,1.73919 -0.767292,0.66499 -1.790348,1.22767 -1.023056,0.51153 -2.148418,0.56268 -1.074209,0.0511 -1.790348,-0.20461 -0.716139,-0.30692 -0.971903,-0.46038 -1.329973,-0.66498 -2.097265,-1.73919 -0.767292,-1.07421 -1.125362,-2.30188 -0.306917,-1.22766 -0.306917,-2.45533 0,-1.22767 0.204612,-2.25072 -1.227668,1.58573 -2.250724,3.42723 -0.971903,1.79035 -1.432278,3.73416 z m 18.61962,-33.50509 q -0.153459,-0.1023 -0.613834,-0.15346 -0.409222,-0.0512 -1.27882,0.56269 -0.818445,0.61383 -2.199571,2.19957 -1.329972,1.58573 -3.324932,4.70605 1.329973,-0.15346 2.353029,-0.61383 1.074209,-0.46038 1.790348,-0.92075 0.818445,-0.56268 1.432279,-1.17652 1.074209,-1.27882 1.483431,-2.14841 0.409222,-0.8696 0.511528,-1.43228 0.102306,-0.61383 -0.153458,-1.02306 z"
       aria-label="sk" />
  </g>
</svg>
